<?xml version="1.0" encoding="UTF-8" standalone="no"?><!DOCTYPE svg PUBLIC "-//W3C//DTD SVG 1.1//EN" "http://www.w3.org/Graphics/SVG/1.1/DTD/svg11.dtd"><svg width="100%" height="100%" viewBox="0 0 16667 16667" version="1.1" xmlns="http://www.w3.org/2000/svg" xmlns:xlink="http://www.w3.org/1999/xlink" xml:space="preserve" xmlns:serif="http://www.serif.com/" style="fill-rule:evenodd;clip-rule:evenodd;stroke-linejoin:round;stroke-miterlimit:2;"><g><path d="M10276.328,7093.563c-228.032,1102.336 -959.286,2020.577 -1942.995,2503.612c-721.858,-354.489 -1307.802,-943.276 -1658.695,-1667.222l457.629,0c279.601,496.535 691.055,917.057 1201.066,1208.55c651.899,-372.647 1142.71,-956.033 1403.053,-1639.524l-5085.491,0l0,-405.417l5625.433,0Z" style="fill:#fff;stroke:#fff;stroke-width:4.17px;"/><path d="M10351.276,4635.969l0,1190.224l-405.422,0l0,-784.814l-3225.041,0l0,1215.79l5224.768,0l0,405.415l-5617.486,0c-8.295,-99.949 -12.704,-201.017 -12.704,-303.136l0,-1723.479l4035.885,0Z" style="fill:#fff;stroke:#fff;stroke-width:4.17px;"/><rect x="11923.886" y="4545.58" width="405.364" height="3828.591" style="fill:#fff;stroke:#fff;stroke-width:4.17px;"/><rect x="11923.886" y="4545.58" width="405.364" height="3828.591" style="fill:#fff;stroke:#fff;stroke-width:2.36px;stroke-linejoin:miter;"/><rect x="12523.056" y="4994.983" width="405.421" height="2929.784" style="fill:#fff;stroke:#fff;stroke-width:4.17px;"/><rect x="12523.056" y="4994.983" width="405.421" height="2929.784" style="fill:#fff;stroke:#fff;stroke-width:2.36px;stroke-linejoin:miter;"/><rect x="13122.284" y="5569.209" width="405.421" height="1781.303" style="fill:#fff;stroke:#fff;stroke-width:4.17px;"/><rect x="13122.284" y="5569.209" width="405.421" height="1781.303" style="fill:#fff;stroke:#fff;stroke-width:2.36px;stroke-linejoin:miter;"/><rect x="13721.454" y="5993.67" width="405.421" height="932.417" style="fill:#fff;stroke:#fff;stroke-width:4.17px;"/><rect x="13721.454" y="5993.67" width="405.421" height="932.417" style="fill:#fff;stroke:#fff;stroke-width:2.36px;stroke-linejoin:miter;"/><rect x="4337.359" y="4545.58" width="405.422" height="3828.591" style="fill:#fff;stroke:#fff;stroke-width:4.17px;"/><rect x="4337.359" y="4545.58" width="405.422" height="3828.591" style="fill:#fff;stroke:#fff;stroke-width:2.36px;stroke-linejoin:miter;"/><rect x="3738.189" y="4994.983" width="405.363" height="2929.784" style="fill:#fff;stroke:#fff;stroke-width:4.17px;"/><rect x="3738.189" y="4994.983" width="405.363" height="2929.784" style="fill:#fff;stroke:#fff;stroke-width:2.36px;stroke-linejoin:miter;"/><rect x="3138.962" y="5569.209" width="405.421" height="1781.303" style="fill:#fff;stroke:#fff;stroke-width:4.17px;"/><rect x="3138.962" y="5569.209" width="405.421" height="1781.303" style="fill:#fff;stroke:#fff;stroke-width:2.36px;stroke-linejoin:miter;"/><rect x="2539.733" y="5993.67" width="405.422" height="932.417" style="fill:#fff;stroke:#fff;stroke-width:4.17px;"/><rect x="2539.733" y="5993.67" width="405.422" height="932.417" style="fill:#fff;stroke:#fff;stroke-width:2.36px;stroke-linejoin:miter;"/><text x="2461.934px" y="11541.778px" style="font-family:'CoolveticaRg-Regular', 'Coolvetica', sans-serif;font-size:2486.301px;fill:#fff;stroke:#fff;stroke-width:4.17px;">GymT<tspan x="8468.837px 9207.268px " y="11541.778px 11541.778px ">ra</tspan>iner</text></g></svg>